<svg width="40" height="40" viewBox="0 0 40 40" fill="none" xmlns="http://www.w3.org/2000/svg">
<path id="Vector" d="M28.1197 40C14.2187 39.8386 -3.19055 21.9843 0.549667 7.92686C1.30733 3.80571 8.61374 -3.30409 13.3645 1.74345C15.2533 3.74455 17.6859 5.30292 17.6233 8.39732C17.637 10.3494 16.7046 11.8588 15.2927 13.123C13.6939 14.7218 13.546 17.2648 14.9486 19.0382C16.6756 21.2238 18.7415 23.2894 20.9273 25.0171C22.7008 26.4195 25.2437 26.2717 26.8426 24.6728L27.4897 24.0259C28.5753 22.9403 30.0237 22.3423 31.5684 22.3423C34.659 22.2777 36.2269 24.717 38.2224 26.6011C43.2623 31.3946 36.1777 38.6305 32.0389 39.4159C30.8315 39.8059 29.5174 40 28.1197 40ZM9.42545 1.71759C6.54413 1.60449 2.70136 5.78626 2.23653 8.2593C-0.791011 19.7836 11.2611 33.0438 21.6296 36.9673C26.6773 38.7724 31.3065 39.028 35.118 35.8226C37.6587 33.6474 39.6198 30.4226 37.0073 27.8163L34.4319 25.2411C32.9333 23.6776 30.2031 23.678 28.7048 25.2412L28.0576 25.8882C25.8424 28.1035 22.3186 28.3085 19.8612 26.365C18.7166 25.4596 17.6028 24.4671 16.5507 23.415C15.4981 22.3624 14.5056 21.2485 13.6007 20.1043C11.6572 17.6471 11.8622 14.1235 14.0775 11.908L14.7246 11.2609C16.2881 9.76362 16.2876 7.03125 14.7246 5.53381L12.1492 2.95845C11.32 2.12915 10.4206 1.71759 9.42545 1.71759Z" fill="#33836E"/>
</svg>
